# xmcd
#
# Track frame offsets: 
#        150
#        19667
#        37978
#        59747
#        76819
#        100509
#        122360
#        143512
#        164560
#        183144
#        205579
#
# Disc length: 3020 seconds
#
# Revision: 0
# Processed by: cddbd v1.5.2PL0 Copyright (c) Steve Scherf et al.
# Submitted via: ExactAudioCopy v1.0b4
#
DISCID=7e0bca0b
DTITLE=Brandon Santini - The Longshot
DYEAR=2019
DGENRE=Blues
TTITLE0=Don't Come Around Here
TTITLE1=Beggin' Baby
TTITLE2=One More Day
TTITLE3=Drive You Off My Mind
TTITLE4=Heartbreaker
TTITLE5=Broken Bones
TTITLE6=Back To You
TTITLE7=My Worried Mind
TTITLE8=Going Home
TTITLE9=Evil (Is Going On)
TTITLE10=Somebody's Gotta Go
EXTD=
EXTT0=
EXTT1=
EXTT2=
EXTT3=
EXTT4=
EXTT5=
EXTT6=
EXTT7=
EXTT8=
EXTT9=
EXTT10=
PLAYORDER=
